{"title":"If I Stay (2014) Dual Audio BDRip 1080p MKV","uid":11554085,"size":14035161531,"categoryP":"video","categoryS":"hd___movies","magnet":"?xt=urn:btih:b0633973be2b1aeee681543e48f1ef3063eecf98&amp;dn=If+I+Stay+%282014%29+Dual+Audio+BDRip+1080p+MKV&amp;tr=udp%3A%2F%2Ftracker.openbittorrent.com%3A80&amp;tr=udp%3A%2F%2Fopen.demonii.com%3A1337&amp;tr=udp%3A%2F%2Ftracker.coppersurfer.tk%3A6969&amp;tr=udp%3A%2F%2Fexodus.desync.com%3A6969","seeders":5,"leechers":0,"uploader":"darkj6","files":-1,"time":1416801271,"description":" ______   _______  ______    ___   _      ___  --------|\n|      | |   _   ||    _ |  |   | | |    |   ||   |----|    \n|  _    ||  |_|  ||   | ||  |   |_| |    |   ||   |___ \n| | |   ||       ||   |_||_ |      _|    |   ||    _  |\n| |_|   ||       ||    __  ||     |_  ___|   ||   | | |\n|       ||   _   ||   |  | ||    _  ||       ||   |_| |\n|______| |__| |__||___|  |_||___| |_||_______||_______|\n                                         &lt;a href=&quot;\nhttps://thepiratebay.se/user/darkj6/&quot; rel=&quot;nofollow&quot; target=&quot;_NEW&quot;&gt;\nhttps://thepiratebay.se/user/darkj6/&lt;/a&gt;\n\nJoin ThePirateBay Forum:\n                                                                  &lt;a href=&quot;\nhttps://forum.suprbay.org/member.php?action=register&amp;referrer=908&quot; rel=&quot;nofollow&quot; target=&quot;_NEW&quot;&gt;\nhttps://forum.suprbay.org/member.php?action=register&amp;referrer=908&lt;/a&gt;\n &lt;a href=&quot;\nhttp://www.imdb.com/title/tt1355630/&quot; rel=&quot;nofollow&quot; target=&quot;_NEW&quot;&gt;\nhttp://www.imdb.com/title/tt1355630/&lt;/a&gt;\n\n\nCodec: MKV \n\nQuality: BDRip 1080p \n\nVideo: MPEG-4 AVC, 14.9 Mbps, 1920x800, 23,976 fps \n\nAudio: Audio: Rus, DTS, 768 kb / s (6 ch), 48 kHz \n\nAudio 2: Eng, DTS 1510 kb / s (6 ch), 48 kHz \n\nSubtitles: Rus, Ukr, Eng\n\n\nFormat : Matroska\nFormat version : Version 4 / Version 2\nFile size : 13.1 GiB\nDuration : 1h 46mn\nOverall bit rate : 17.5 Mbps\nMovie name : Tonik\nEncoded date : UTC 2014-11-23 06:48:13\nWriting application : mkvmerge v7.1.0 ('Good Love') 64bit built on Jul 27 2014 13:06:55\nWriting library : libebml v1.3.0 + libmatroska v1.4.1\n_STATISTICS_WRITING_APP : mkvmerge v7.1.0 ('Good Love') 64bit built on Jul 27 2014 13:06:55\n_STATISTICS_WRITING_DATE_UTC : 2014-11-23 06:48:13\n_STATISTICS_TAGS : BPS DURATION NUMBER_OF_FRAMES NUMBER_OF_BYTES\nDURATION : 01:46:09.779000000\nNUMBER_OF_FRAMES : 1858\nNUMBER_OF_BYTES : 80555\n\nVideo\nID : 1\nFormat : AVC\nFormat/Info : Advanced Video Codec\nFormat profile : &lt;a class=&quot;__cf_email__&quot; href=&quot;/cdn-cgi/l/email-protection&quot; data-cfemail=&quot;9cd4f5fbf4dcd0a8b2ad&quot;&gt;[email&amp;#160;protected]&lt;/a&gt;&lt;script cf-hash='f9e31' type=&quot;text/javascript&quot;&gt;\n/* &lt;![CDATA[ */!function(){try{var t=&quot;currentScript&quot;in document?document.currentScript:function(){for(var t=document.getElementsByTagName(&quot;script&quot;),e=t.length;e--;)if(t[e].getAttribute(&quot;cf-hash&quot;))return t[e]}();if(t&amp;&amp;t.previousSibling){var e,r,n,i,c=t.previousSibling,a=c.getAttribute(&quot;data-cfemail&quot;);if(a){for(e=&quot;&quot;,r=parseInt(a.substr(0,2),16),n=2;a.length-n;n+=2)i=parseInt(a.substr(n,2),16)^r,e+=String.fromCharCode(i);e=document.createTextNode(e),c.parentNode.replaceChild(e,c)}}}catch(u){}}();/* ]]&gt; */&lt;/script&gt;\nFormat settings, CABAC : Yes\nFormat settings, ReFrames : 5 frames\nCodec ID : V_MPEG4/ISO/AVC\nDuration : 1h 46mn\nBit rate : 14.9 Mbps\nWidth : 1 920 pixels\nHeight : 800 pixels\nDisplay aspect ratio : 2.40:1\nFrame rate mode : Constant\nFrame rate : 23.976 fps\nColor space : YUV\nChroma subsampling : 4:2:0\nBit depth : 8 bits\nScan type : Progressive\nBits/(Pixel*Frame) : 0.405\nStream size : 11.1 GiB (85%)\nWriting library : x264 core 142 r2479kMod dd79a61\nEncoding settings : cabac=1 / ref=5 / deblock=1:-3:-3 / analyse=0x3:0x133 / me=umh / subme=10 / psy=1 / fade_compensate=0.00 / psy_rd=0.95:0.00 / mixed_ref=1 / me_range=24 / chroma_me=1 / trellis=2 / 8x8dct=1 / cqm=0 / deadzone=21,11 / fast_pskip=0 / chroma_qp_offset=-2 / threads=18 / lookahead_threads=3 / sliced_threads=0 / nr=0 / decimate=1 / interlaced=0 / bluray_compat=0 / constrained_intra=0 / fgo=0 / bframes=9 / b_pyramid=2 / b_adapt=2 / b_bias=0 / direct=3 / weightb=1 / open_gop=0 / weightp=2 / keyint=230 / keyint_min=23 / scenecut=40 / intra_refresh=0 / rc_lookahead=40 / rc=crf / mbtree=0 / crf=16.5000 / qcomp=0.65 / qpmin=0 / qpmax=69 / qpstep=4 / vbv_maxrate=50000 / vbv_bufsize=62500 / crf_max=0.0 / nal_hrd=none / filler=0 / ip_ratio=1.30 / pb_ratio=1.20 / aq=1:0.75\nLanguage : English\nDefault : Yes\nForced : No\nMatrix coefficients : BT.709\nDURATION : 01:46:40.186000000\nNUMBER_OF_FRAMES : 153451\nNUMBER_OF_BYTES : 12210247243\n_STATISTICS_WRITING_APP : mkvmerge v7.1.0 ('Good Love') 64bit built on Jul 27 2014 13:06:55\n_STATISTICS_WRITING_DATE_UTC : 2014-11-23 06:48:13\n_STATISTICS_TAGS : BPS DURATION NUMBER_OF_FRAMES NUMBER_OF_BYTES\n\nAudio #1\nID : 2\nFormat : DTS\nFormat/Info : Digital Theater Systems\nMode : 16\nFormat settings, Endianness : Big\nCodec ID : A_DTS\nDuration : 1h 46mn\nBit rate mode : Constant\nBit rate : 768 Kbps\nChannel(s) : 6 channels\nChannel positions : Front: L C R, Side: L R, LFE\nSampling rate : 48.0 KHz\nBit depth : 24 bits\nCompression mode : Lossy\nStream size : 586 MiB (4%)\nLanguage : Russian\nDefault : Yes\nForced : No\n\nAudio #2\nID : 3\nFormat : DTS\nFormat/Info : Digital Theater Systems\nMode : 16\nFormat settings, Endianness : Big\nCodec ID : A_DTS\nDuration : 1h 46mn\nBit rate mode : Constant\nBit rate : 1 509 Kbps\nChannel(s) : 6 channels\nChannel positions : Front: L C R, Side: L R, LFE\nSampling rate : 48.0 KHz\nBit depth : 24 bits\nCompression mode : Lossy\nStream size : 1.12 GiB (9%)\nLanguage : English\nDefault : No\nForced : No\n\nText #1\nID : 4\nFormat : UTF-8\nCodec ID : S_TEXT/UTF8\nCodec ID/Info : UTF-8 Plain Text\nLanguage : Russian\nDefault : No\nForced : No\n\nText #2\nID : 5\nFormat : UTF-8\nCodec ID : S_TEXT/UTF8\nCodec ID/Info : UTF-8 Plain Text\nLanguage : Ukrainian\nDefault : No\nForced : No\n\nText #3\nID : 6\nFormat : UTF-8\nCodec ID : S_TEXT/UTF8\nCodec ID/Info : UTF-8 Plain Text\nLanguage : English\nDefault : No\nForced : No\n\nText #4\nID : 7\nFormat : UTF-8\nCodec ID : S_TEXT/UTF8\nCodec ID/Info : UTF-8 Plain Text\nTitle : SDH\nLanguage : English\nDefault : No\nForced : No\n\nText #5\nID : 8\nFormat : UTF-8\nCodec ID : S_TEXT/UTF8\nCodec ID/Info : UTF-8 Plain Text\nTitle : commentary\nLanguage : English\nDefault : No\nForced : No\n\nMenu\n00:00:00.000 : en:00:00:00.000\n00:03:20.367 : en:00:03:20.367\n00:07:23.902 : en:00:07:23.902\n00:11:31.608 : en:00:11:31.608\n00:14:43.716 : en:00:14:43.716\n00:19:12.485 : en:00:19:12.485\n00:23:19.607 : en:00:23:19.607\n00:25:19.268 : en:00:25:19.268\n00:27:26.436 : en:00:27:26.436\n00:30:46.011 : en:00:30:46.011\n00:32:11.596 : en:00:32:11.596\n00:34:38.368 : en:00:34:38.368\n00:37:21.906 : en:00:37:21.906\n00:40:41.189 : en:00:40:41.189\n00:44:02.223 : en:00:44:02.223\n00:46:58.899 : en:00:46:58.899\n00:49:07.820 : en:00:49:07.820\n00:52:06.332 : en:00:52:06.332\n00:55:42.756 : en:00:55:42.756\n00:59:01.580 : en:00:59:01.580\n01:00:42.347 : en:01:00:42.347\n01:05:39.310 : en:01:05:39.310\n01:10:10.039 : en:01:10:10.039\n01:13:48.924 : en:01:13:48.924\n01:16:18.407 : en:01:16:18.407\n01:18:54.730 : en:01:18:54.730\n01:24:05.415 : en:01:24:05.415\n01:27:44.468 : en:01:27:44.468\n01:29:50.176 : en:01:29:50.176\n01:33:37.028 : en:01:33:37.028\n01:38:16.307 : en:01:38:16.307\n01:40:25.353 : en:01:40:25.353","torrent":{"xt":"urn:btih:b0633973be2b1aeee681543e48f1ef3063eecf98","amp;dn":"If+I+Stay+%282014%29+Dual+Audio+BDRip+1080p+MKV","amp;tr":["udp%3A%2F%2Ftracker.openbittorrent.com%3A80","udp%3A%2F%2Fopen.demonii.com%3A1337","udp%3A%2F%2Ftracker.coppersurfer.tk%3A6969","udp%3A%2F%2Fexodus.desync.com%3A6969"],"infoHash":"b0633973be2b1aeee681543e48f1ef3063eecf98","infoHashBuffer":{"type":"Buffer","data":[176,99,57,115,190,43,26,238,230,129,84,62,72,241,239,48,99,238,207,152]},"announce":[],"urlList":[]}}